<svg viewBox="0 0 24 24" fill="none" xmlns="http://www.w3.org/2000/svg" stroke="#767676">
    <g id="SVGRepo_bgCarrier" stroke-width="0"></g>
    <g id="SVGRepo_tracerCarrier" stroke-linecap="square" stroke-linejoin="miter"></g>
    <g id="SVGRepo_iconCarrier">
        <path fill-rule="evenodd" clip-rule="evenodd"
            d="M20.8 4H3.2C2.54 4 2 4.54 2 5.2v12.4C2 19.92 4.1 20 4.4 20h15.2c1.32 0 2.4-.1 2.4-2.4V5.2c0-.66-.54-1.2-1.2-1.2ZM5.65 6.3a1 1 0 1 0-1.3 1.52l6.87 5.89a1.2 1.2 0 0 0 .78.285 1.2 1.2 0 0 0 .78-.286l6.87-5.89a1 1 0 1 0-1.3-1.518L12 11.744 5.65 6.301Z"
            fill="#767676"></path>
    </g>
</svg>